<svg width="22" height="12" viewBox="0 0 22 12" fill="none" xmlns="http://www.w3.org/2000/svg">
<path d="M3.79004 4.50038H1.79004C1.52482 4.50038 1.27047 4.60574 1.08293 4.79328C0.895396 4.98081 0.790039 5.23517 0.790039 5.50038C0.790039 5.7656 0.895396 6.01996 1.08293 6.20749C1.27047 6.39503 1.52482 6.50038 1.79004 6.50038H3.79004C4.05526 6.50038 4.30961 6.39503 4.49715 6.20749C4.68468 6.01996 4.79004 5.7656 4.79004 5.50038C4.79004 5.23517 4.68468 4.98081 4.49715 4.79328C4.30961 4.60574 4.05526 4.50038 3.79004 4.50038ZM20.57 1.66038V1.60038C20.2835 1.25017 19.9215 0.96931 19.5111 0.778817C19.1007 0.588324 18.6525 0.493138 18.2 0.500385H10.27C9.53524 0.493785 8.82358 0.7571 8.27004 1.24038C7.75304 1.69592 7.41313 2.31909 7.31004 3.00038L6.43004 8.00038C6.35437 8.43218 6.37424 8.87531 6.48827 9.2986C6.6023 9.72188 6.80771 10.115 7.09004 10.4504C7.3709 10.7846 7.72132 11.0535 8.11685 11.2383C8.51237 11.4231 8.94347 11.5194 9.38004 11.5204H17.32C18.0333 11.5312 18.727 11.2874 19.2768 10.833C19.8266 10.3785 20.1965 9.74293 20.32 9.04039L21.2 4.04038C21.2693 3.62169 21.249 3.19305 21.1404 2.78278C21.0318 2.37252 20.8374 1.98996 20.57 1.66038ZM17.83 2.50038L14.43 5.26039C14.229 5.4224 13.9731 5.50039 13.7159 5.47802C13.4587 5.45565 13.2201 5.33467 13.05 5.14039L10.72 2.50038H17.83ZM18.31 8.67039C18.2696 8.90518 18.1466 9.1178 17.9632 9.26997C17.7799 9.42214 17.5483 9.50385 17.31 9.50039H9.38004C9.23482 9.49916 9.0916 9.46633 8.96036 9.40416C8.82911 9.34199 8.71298 9.25198 8.62004 9.14039C8.52686 9.02938 8.45893 8.89945 8.42094 8.75958C8.38296 8.61972 8.37582 8.47328 8.40004 8.33038L9.20004 3.80038L11.55 6.46038C12.0615 7.04175 12.778 7.40282 13.5496 7.46805C14.3212 7.53328 15.0882 7.29763 15.69 6.81039L19.13 4.00038L18.31 8.67039ZM4.79004 0.500385H1.79004C1.52482 0.500385 1.27047 0.605742 1.08293 0.793278C0.895396 0.980815 0.790039 1.23517 0.790039 1.50038C0.790039 1.7656 0.895396 2.01996 1.08293 2.20749C1.27047 2.39503 1.52482 2.50038 1.79004 2.50038H4.79004C5.05526 2.50038 5.30961 2.39503 5.49715 2.20749C5.68468 2.01996 5.79004 1.7656 5.79004 1.50038C5.79004 1.23517 5.68468 0.980815 5.49715 0.793278C5.30961 0.605742 5.05526 0.500385 4.79004 0.500385Z" fill="black"/>
</svg>
