<svg width="24" height="24" viewBox="0 0 24 24" fill="none" xmlns="http://www.w3.org/2000/svg">
<path d="M21.49 4.73011L17 2.17011C16.848 2.08234 16.6755 2.03613 16.5 2.03613C16.3245 2.03613 16.152 2.08234 16 2.17011L12 4.45011L8 2.17011C7.84798 2.08234 7.67554 2.03613 7.5 2.03613C7.32446 2.03613 7.15202 2.08234 7 2.17011L2.51 4.73011C2.35553 4.81693 2.22691 4.94324 2.1373 5.09611C2.04769 5.24898 2.00031 5.42291 2 5.60011V10.7201C2.00031 10.8973 2.04769 11.0712 2.1373 11.2241C2.22691 11.377 2.35553 11.5033 2.51 11.5901L6.51 13.8601V18.4001C6.51031 18.5773 6.55769 18.7512 6.6473 18.9041C6.73691 19.057 6.86553 19.1833 7.02 19.2701L11.52 21.8301C11.672 21.9179 11.8445 21.9641 12.02 21.9641C12.1955 21.9641 12.368 21.9179 12.52 21.8301L17 19.2701C17.1545 19.1833 17.2831 19.057 17.3727 18.9041C17.4623 18.7512 17.5097 18.5773 17.51 18.4001V13.8601L21.51 11.5901C21.6645 11.5033 21.7931 11.377 21.8827 11.2241C21.9723 11.0712 22.0197 10.8973 22.02 10.7201V5.60011C22.0177 5.42091 21.9673 5.24561 21.8741 5.09256C21.7809 4.93951 21.6482 4.81432 21.49 4.73011ZM4 10.1401V6.14011L7.5 4.14011L11 6.14011V10.1401L7.5 12.1401L4 10.1401ZM15.5 17.8201L12 19.8201L8.5 17.8201V13.8201L12 11.8201L15.5 13.8201V17.8201ZM20 10.1401L16.5 12.1401L13 10.1401V6.14011L16.5 4.14011L20 6.14011V10.1401Z" fill="black"/>
</svg>
