<svg width="220" height="220" viewBox="0 0 220 220" fill="none" xmlns="http://www.w3.org/2000/svg">
<path d="M188.207 110.26C188.207 115.925 187.608 121.451 186.466 126.775C183.187 142.119 175.428 155.802 164.619 166.389C159.401 171.505 153.465 175.903 146.981 179.408C140.377 182.986 133.207 185.644 125.636 187.214C120.464 188.282 115.108 188.844 109.623 188.844C108.306 188.844 106.998 188.812 105.7 188.747C90.8845 188.02 77.1516 183.189 65.6109 175.365C62.0004 172.924 58.6017 170.184 55.4563 167.19C51.9978 163.902 48.8432 160.301 46.0294 156.432C36.6393 143.519 31.0807 127.631 31.0393 110.454C31.0393 110.09 31.0439 109.731 31.0439 109.367C31.0485 109.067 31.0577 108.768 31.0623 108.473C31.0669 108.211 31.0715 107.948 31.0807 107.686C31.6472 90.057 38.0255 73.8926 48.355 61.0486C50.3445 58.5756 52.4767 56.2269 54.7471 54.0164C64.7497 44.2532 77.3497 37.1335 91.4141 33.7993C95.3654 32.8598 99.4318 32.2243 103.586 31.9066C105.58 31.7546 107.592 31.6763 109.623 31.6763C123.19 31.6763 135.951 35.1118 147.087 41.1723C150.472 43.0052 153.705 45.0822 156.767 47.3802C159.733 49.6045 162.533 52.0361 165.149 54.6519C166.429 55.9321 167.668 57.2538 168.851 58.6216C174.525 65.115 179.149 72.5479 182.446 80.6623C186.162 89.7991 188.207 99.7925 188.207 110.26Z" fill="#F9911E"/>
<path d="M183.772 84.1669C171.094 101.073 155.326 119.245 137.282 137.284C119.078 155.493 100.735 171.386 83.6957 184.124C83.5944 184.202 83.4885 184.276 83.3872 184.354C78.0267 182.457 72.9379 179.997 68.1898 177.041C68.2912 176.99 68.3879 176.935 68.4892 176.88H68.4938C68.5122 176.871 68.5352 176.852 68.5537 176.843C85.7543 167.43 107.528 150.552 129.039 129.04C150.338 107.741 167.092 86.1886 176.561 69.0709C178.831 72.7413 180.802 76.6189 182.446 80.6623C182.916 81.8182 183.358 82.9834 183.772 84.1669Z" fill="#F9A24B"/>
<path d="M146.459 52.3985C146.041 52.3985 145.619 52.2848 145.239 52.0467C142.521 50.3441 139.659 48.8258 136.732 47.534C135.569 47.0205 135.042 45.6611 135.555 44.4978C136.068 43.335 137.428 42.8077 138.592 43.3211C141.72 44.7018 144.779 46.3247 147.683 48.1442C148.761 48.8193 149.087 50.2405 148.412 51.3182C147.975 52.0158 147.226 52.3985 146.459 52.3985Z" fill="white"/>
<path d="M157.096 161.885C156.481 161.885 155.868 161.64 155.415 161.156C154.546 160.227 154.594 158.77 155.523 157.901C169.051 145.244 176.81 127.396 176.81 108.932C176.81 90.3614 169.363 73.077 155.841 60.2615C154.918 59.3866 154.879 57.9295 155.754 57.0061C156.628 56.0832 158.086 56.0441 159.009 56.9186C173.458 70.6123 181.415 89.084 181.415 108.931C181.415 128.665 173.125 147.74 158.669 161.263C158.225 161.679 157.66 161.885 157.096 161.885Z" fill="white"/>
<path d="M147.411 169.466C146.657 169.466 145.918 169.096 145.477 168.417C144.785 167.351 145.088 165.924 146.155 165.232C147.328 164.471 148.494 163.661 149.62 162.825C150.642 162.067 152.083 162.281 152.841 163.302C153.6 164.324 153.386 165.765 152.364 166.523C151.161 167.416 149.916 168.281 148.663 169.095C148.275 169.346 147.84 169.466 147.411 169.466Z" fill="white"/>
<path opacity="0.25" d="M165.149 54.6519C162.533 52.0361 159.733 49.6045 156.767 47.3802C153.705 45.0822 150.472 43.0052 147.087 41.1723C147.239 41.4486 147.423 41.7019 147.649 41.9276C152.53 46.7999 149.979 58.2347 141.855 73.1005C141.846 73.1189 141.828 73.1419 141.819 73.1604C141.726 73.3307 141.63 73.5011 141.533 73.6761C132.065 90.7938 115.311 112.346 94.0115 133.646C90.2702 137.387 86.5215 140.986 82.7903 144.43C79.0126 147.917 72.9194 146.707 70.7752 142.035C66.2055 132.074 63.6555 120.996 63.6555 109.32C63.6555 88.1177 72.0555 68.8724 85.7054 54.7389C93.2258 46.9514 102.34 40.7113 112.522 36.5482C116.768 34.8143 121.201 33.4452 125.779 32.4693C120.47 31.3373 114.965 30.7364 109.318 30.7364C98.7995 30.7364 88.7693 32.8041 79.6003 36.5482C69.4181 40.7113 60.3043 46.9514 52.7839 54.7389C39.134 68.8724 30.734 88.1177 30.734 109.32C30.734 132.065 40.4023 152.547 55.8487 166.897C55.7184 166.994 55.5862 167.094 55.4559 167.19C58.6013 170.184 61.9999 172.924 65.6104 175.365C65.7735 175.23 65.937 175.092 66.1 174.957C71.3665 178.433 77.0738 181.295 83.1233 183.432C91.316 186.329 100.135 187.904 109.318 187.904C114.962 187.904 120.466 187.305 125.774 186.174C122.448 185.465 119.2 184.548 116.045 183.432C106.853 180.185 98.4436 175.272 91.1857 169.059C90.7947 168.725 90.4074 168.387 90.0233 168.045C85.8127 164.296 85.8077 157.724 89.9137 153.861C94.0234 149.995 98.1424 146.002 102.255 141.889C120.298 123.85 136.067 105.678 148.745 88.7717C148.86 88.6151 148.98 88.4585 149.095 88.3019C156.942 77.8066 163.592 67.7994 168.851 58.6211C167.668 57.2538 166.429 55.9321 165.149 54.6519Z" fill="black"/>
<path d="M214.135 5.86385C203.833 -4.43348 173.088 8.37832 136.306 35.8762L135.975 36.2078C141.312 38.1006 146.382 40.5598 151.112 43.5117L151.508 43.1157C166.374 34.9874 177.809 32.4453 182.676 37.3223C187.558 42.1946 185.007 53.6295 176.883 68.4952C176.874 68.5136 176.855 68.5367 176.846 68.5551C176.754 68.7255 176.657 68.8959 176.561 69.0709C167.092 86.1886 150.338 107.741 129.039 129.04C107.528 150.551 85.7543 167.43 68.5537 176.843C68.5353 176.852 68.5122 176.87 68.4938 176.88H68.4892C68.3879 176.935 68.2912 176.99 68.1899 177.041C64.5563 179.017 61.13 180.661 57.957 181.932C48.2814 185.823 40.9636 186.325 37.3209 182.678C32.4808 177.842 34.9584 166.55 42.9347 151.846C39.9735 147.107 37.5005 142.027 35.5939 136.68C8.28943 173.301 -4.39803 203.871 5.86707 214.136C13.8434 222.117 34.0834 216.227 59.9004 200.385H59.905C67.3241 195.835 75.2037 190.461 83.3872 184.354C83.4885 184.276 83.5944 184.202 83.6957 184.124C100.735 171.386 119.078 155.493 137.282 137.284C155.326 119.245 171.094 101.073 183.772 84.1669C183.887 84.0103 184.007 83.8537 184.122 83.6971C211.62 46.9104 224.437 16.1658 214.135 5.86385Z" fill="#F7DB9C"/>
<path d="M109.998 191.008C100.683 191.008 91.549 189.44 82.852 186.347L84.3947 182.008C92.5962 184.924 101.21 186.402 109.998 186.402C152.127 186.402 186.402 152.128 186.402 109.999C186.402 101.214 184.923 92.6014 182.007 84.4004L181.874 84.026V83.6286L184.183 83.6263L186.346 82.8572C189.439 91.5551 191.007 100.687 191.007 109.999C191.007 154.668 154.666 191.008 109.998 191.008Z" fill="#333333"/>
<path d="M16.1694 220.001C11.0502 220.001 7.06209 218.589 4.23723 215.763C-1.51657 210.01 -1.41019 199.426 4.55361 184.307C9.98734 170.531 20.1811 153.456 34.0323 134.926L37.7211 137.684C24.1112 155.89 14.1238 172.596 8.83787 185.997C3.75736 198.878 3.2798 208.293 7.4936 212.507C11.7079 216.721 21.1228 216.244 34.0037 211.163C47.4045 205.877 64.1105 195.889 82.3164 182.279C99.7233 169.267 118.168 153.145 135.656 135.657C153.143 118.17 169.265 99.7254 182.278 82.3176C195.888 64.1116 205.876 47.4052 211.162 34.0044C216.243 21.123 216.72 11.7081 212.506 7.49427C208.292 3.28046 198.878 3.75711 185.996 8.83854C172.595 14.124 155.889 24.1118 137.683 37.7217L134.925 34.0334C153.455 20.1817 170.53 9.98847 184.307 4.55474C199.426 -1.4086 210.009 -1.51544 215.763 4.2379C221.516 9.99123 221.41 20.575 215.446 35.6945C210.013 49.4706 199.819 66.546 185.968 85.0752C172.824 102.657 156.553 121.274 138.913 138.914C121.271 156.555 102.655 172.826 85.0745 185.968C66.5453 199.819 49.4695 210.013 35.6934 215.447C27.998 218.482 21.476 220 16.1694 220.001ZM44.5097 187.437C40.7426 187.438 37.7818 186.398 35.6915 184.307C30.1427 178.758 32.0129 167.034 41.0995 150.402L45.1406 152.61C37.4784 166.634 35.1633 177.266 38.9474 181.05C42.7408 184.842 53.3697 182.528 67.3821 174.858L67.9025 174.575C85.4392 164.889 107.095 147.729 127.411 127.413C147.879 106.945 165.149 85.1106 174.802 67.4983L174.853 67.4044C182.524 53.3667 184.838 42.735 181.049 38.9499C177.26 35.1566 166.63 37.4717 152.614 45.1371L150.404 41.0964C167.03 32.0043 178.754 30.1355 184.306 35.6936C189.856 41.2387 187.993 52.9531 178.917 69.5702L178.867 69.6623C169.018 87.6504 151.45 109.886 130.667 130.669C109.88 151.456 87.6442 169.022 69.6603 178.864L69.6193 178.886C69.5811 178.907 69.5452 178.925 69.5125 178.942L69.5032 178.946C59.1746 184.591 50.7415 187.437 44.5097 187.437Z" fill="#333333"/>
<path d="M16.1966 209.388C14.0639 209.388 12.4346 208.982 11.7263 208.273C11.573 208.12 8.04213 204.33 14.4066 188.193C17.8596 179.439 23.4379 169.163 30.816 157.91C24.9724 171.984 25.1792 182.261 31.458 188.54C33.6933 190.775 37.7759 193.44 44.5281 193.44C49.4267 193.44 55.2878 192.024 62.0322 189.217C42.4608 202.04 25.9584 209.388 16.1989 209.388C16.1976 209.388 16.1976 209.388 16.1966 209.388ZM189.191 62.0792C195.031 48.0111 194.82 37.7345 188.536 31.4566C186.307 29.2254 182.225 26.559 175.471 26.559C170.578 26.559 164.721 27.9732 157.982 30.7746C177.547 17.9568 194.045 10.6124 203.803 10.6124C205.935 10.6124 207.564 11.0185 208.272 11.7268C208.426 11.8802 211.957 15.6703 205.593 31.8071C202.141 40.558 196.564 50.8309 189.191 62.0792Z" fill="#DDBE7F"/>
<path d="M68.6853 178.303L66.6996 177.344C56.2526 170.839 47.3009 161.885 40.8107 151.45C37.7883 146.591 35.2844 141.392 33.3682 135.999C30.2983 127.378 28.7413 118.321 28.7413 109.079C28.7413 64.7816 64.7796 28.7432 109.077 28.7432C118.323 28.7432 127.382 30.2998 136.004 33.3706C141.381 35.2831 146.578 37.787 151.448 40.8117C161.895 47.3097 170.85 56.2656 177.343 66.7121L174.628 71.2874L173.432 69.1432C167.309 59.2935 158.866 50.8493 149.016 44.723C144.426 41.8719 139.528 39.5121 134.459 37.7092C126.334 34.8157 117.795 33.3485 109.077 33.3485C67.3185 33.3485 33.3465 67.3209 33.3465 109.079C33.3465 117.793 34.8138 126.331 37.7068 134.456C39.5134 139.539 41.8736 144.439 44.7215 149.018C50.8179 158.82 59.2188 167.237 69.0234 173.366L70.6596 174.142L68.6853 178.303Z" fill="#333333"/>
</svg>
