<svg width="114" height="220" viewBox="0 0 114 220" fill="none" xmlns="http://www.w3.org/2000/svg">
<path d="M110.503 103.541V184.806H86.0021H28.0029H3.49683V103.541H3.51253H28.3955H109.964H110.503Z" fill="#EAC16E"/>
<path d="M110.503 78.6372V103.541H109.964H28.3955V78.6372H109.964H110.503Z" fill="#1AA5E2"/>
<path d="M110.503 56.1201V78.6373H109.964H28.3955H3.51253H3.49683V56.1201H110.503Z" fill="#EAC16E"/>
<path d="M79.1349 19.6541L110.503 56.1201H3.49683L34.8701 19.6541H79.1297H79.1349Z" fill="#FCB20D"/>
<path d="M81.4851 194.882L89.4357 217.383H24.5642L32.52 194.882H81.4851Z" fill="#F24125"/>
<path d="M86.0023 184.806V194.882H81.4853H32.5202H28.0032V184.806H86.0023Z" fill="#FCB20D"/>
<path d="M69.3472 8.28037L79.1297 19.6541H34.8701L44.6579 8.28037C47.7513 4.68454 52.2578 2.61707 56.9999 2.61707C59.371 2.61707 61.6844 3.13524 63.7938 4.09832C65.8979 5.06663 67.7979 6.47984 69.3472 8.28037Z" fill="#20505B"/>
<path d="M28.3955 78.6372V103.541H3.51253H3.49683V78.6372H3.51253H28.3955Z" fill="#1AA5E2"/>
<path d="M28.003 187.423H3.49694C2.0518 187.423 0.879883 186.251 0.879883 184.806V56.1201C0.879883 55.4936 1.10443 54.888 1.51321 54.4132L42.6742 6.57351C46.268 2.39617 51.4895 0 57 0C59.7327 0 62.3843 0.577845 64.881 1.71783C67.3797 2.86777 69.5477 4.50029 71.3315 6.57351L81.114 17.9478C82.0567 19.0433 81.9321 20.6957 80.8366 21.6383C79.7406 22.581 78.0882 22.4564 77.1461 21.3609L67.3635 9.9872C66.0733 8.48763 64.5041 7.30629 62.6999 6.47616C60.8978 5.65284 58.9774 5.23411 57 5.23411C53.0158 5.23411 49.2404 6.9666 46.6422 9.9872L6.11399 57.091V182.189H28.003C29.4482 182.189 30.6201 183.361 30.6201 184.806C30.6201 186.251 29.4482 187.423 28.003 187.423Z" fill="#333333"/>
<path d="M110.503 187.423H86.002C84.5569 187.423 83.385 186.251 83.385 184.806C83.385 183.361 84.5569 182.189 86.002 182.189H107.886V57.091L77.1506 21.3609C76.2079 20.2649 76.3325 18.613 77.428 17.6704C78.5235 16.7272 80.1759 16.8523 81.1186 17.9478L112.487 54.4138C112.895 54.8885 113.119 55.4941 113.119 56.1206V184.806C113.12 186.251 111.948 187.423 110.503 187.423Z" fill="#333333"/>
<path d="M38.5812 58.7372H3.49694C2.0518 58.7372 0.879883 57.5652 0.879883 56.1201C0.879883 54.675 2.0518 53.5031 3.49694 53.5031H38.5812C40.0263 53.5031 41.1982 54.675 41.1982 56.1201C41.1982 57.5652 40.0263 58.7372 38.5812 58.7372Z" fill="#333333"/>
<path d="M110.503 58.7372H49.3985C47.9534 58.7372 46.7815 57.5652 46.7815 56.1201C46.7815 54.675 47.9534 53.5031 49.3985 53.5031H110.503C111.948 53.5031 113.12 54.675 113.12 56.1201C113.12 57.5652 111.948 58.7372 110.503 58.7372Z" fill="#333333"/>
<path d="M89.4357 220H24.5641C23.7146 220 22.9175 219.588 22.427 218.894C21.9366 218.201 21.8136 217.312 22.0968 216.51L30.0526 194.009C30.5347 192.647 32.0311 191.933 33.392 192.414C34.7549 192.896 35.4689 194.391 34.9868 195.754L28.2646 214.766H85.7351L79.0177 195.753C78.5361 194.39 79.2506 192.895 80.6136 192.414C81.976 191.931 83.4714 192.647 83.9529 194.01L91.9035 216.511C92.1867 217.312 92.0632 218.201 91.5727 218.894C91.0818 219.588 90.2851 220 89.4357 220Z" fill="#333333"/>
<path d="M58.1217 22.2711H34.8702C33.4251 22.2711 32.2532 21.0992 32.2532 19.654C32.2532 18.2089 33.4251 17.037 34.8702 17.037H58.1217C59.5668 17.037 60.7387 18.2089 60.7387 19.654C60.7387 21.0992 59.5668 22.2711 58.1217 22.2711Z" fill="#333333"/>
<path d="M79.135 22.2711H66.4962C65.0511 22.2711 63.8792 21.0992 63.8792 19.654C63.8792 18.2089 65.0511 17.037 66.4962 17.037H79.1298C80.5749 17.037 81.7494 18.2089 81.7494 19.654C81.7494 21.0992 80.5801 22.2711 79.135 22.2711Z" fill="#333333"/>
<path d="M56.0276 81.2543H3.5128C2.06767 81.2543 0.895752 80.0824 0.895752 78.6372C0.895752 77.1921 2.06767 76.0202 3.5128 76.0202H56.0282C57.4733 76.0202 58.6452 77.1921 58.6452 78.6372C58.6452 80.0824 57.4733 81.2543 56.0276 81.2543Z" fill="#333333"/>
<path d="M109.964 81.2543H66.4962C65.0511 81.2543 63.8792 80.0824 63.8792 78.6372C63.8792 77.1921 65.0511 76.0202 66.4962 76.0202H109.964C111.409 76.0202 112.581 77.1921 112.581 78.6372C112.581 80.0824 111.41 81.2543 109.964 81.2543Z" fill="#333333"/>
<path d="M70.3351 106.158H3.51281C2.06767 106.158 0.895752 104.986 0.895752 103.541C0.895752 102.096 2.06767 100.924 3.51281 100.924H70.3351C71.7802 100.924 72.9521 102.096 72.9521 103.541C72.9521 104.986 71.7802 106.158 70.3351 106.158Z" fill="#333333"/>
<path d="M109.964 106.158H79.0582C77.6131 106.158 76.4412 104.986 76.4412 103.541C76.4412 102.096 77.6131 100.924 79.0582 100.924H109.964C111.409 100.924 112.581 102.096 112.581 103.541C112.581 104.986 111.41 106.158 109.964 106.158Z" fill="#333333"/>
<path d="M93.8009 94.2663H88.7447C87.2996 94.2663 86.1277 93.0944 86.1277 91.6492C86.1277 90.2041 87.2996 89.0322 88.7447 89.0322H93.8009C95.246 89.0322 96.4179 90.2041 96.4179 91.6492C96.4179 93.0944 95.246 94.2663 93.8009 94.2663Z" fill="#333333"/>
<path d="M80.03 94.2663H44.93C43.4849 94.2663 42.313 93.0944 42.313 91.6492C42.313 90.2041 43.4849 89.0322 44.93 89.0322H80.03C81.4751 89.0322 82.647 90.2041 82.647 91.6492C82.647 93.0944 81.4751 94.2663 80.03 94.2663Z" fill="#333333"/>
<path d="M45.7152 123.326H17.2154C15.7703 123.326 14.5984 122.154 14.5984 120.709C14.5984 119.264 15.7703 118.092 17.2154 118.092H45.7152C47.1603 118.092 48.3322 119.264 48.3322 120.709C48.3322 122.154 47.1608 123.326 45.7152 123.326Z" fill="#333333"/>
<path d="M32.3054 133.569H17.2154C15.7703 133.569 14.5984 132.397 14.5984 130.952C14.5984 129.507 15.7703 128.335 17.2154 128.335H32.3054C33.7505 128.335 34.9224 129.507 34.9224 130.952C34.9224 132.397 33.7505 133.569 32.3054 133.569Z" fill="#333333"/>
<path d="M45.7151 133.569H40.3763C38.9312 133.569 37.7593 132.397 37.7593 130.952C37.7593 129.507 38.9312 128.335 40.3763 128.335H45.7151C47.1603 128.335 48.3322 129.507 48.3322 130.952C48.3322 132.397 47.1608 133.569 45.7151 133.569Z" fill="#333333"/>
<path d="M45.7152 143.812H17.2154C15.7703 143.812 14.5984 142.64 14.5984 141.195C14.5984 139.75 15.7703 138.578 17.2154 138.578H45.7152C47.1603 138.578 48.3322 139.75 48.3322 141.195C48.3322 142.64 47.1608 143.812 45.7152 143.812Z" fill="#333333"/>
<path d="M45.7152 154.061H17.2154C15.7703 154.061 14.5984 152.889 14.5984 151.444C14.5984 149.999 15.7703 148.827 17.2154 148.827H45.7152C47.1603 148.827 48.3322 149.999 48.3322 151.444C48.3322 152.889 47.1608 154.061 45.7152 154.061Z" fill="#333333"/>
<path d="M28.3956 99.0921C26.9505 99.0921 25.7786 97.9202 25.7786 96.4751V78.6372C25.7786 77.1921 26.9505 76.0202 28.3956 76.0202C29.8408 76.0202 31.0127 77.1921 31.0127 78.6372V96.4751C31.0127 97.9202 29.8408 99.0921 28.3956 99.0921Z" fill="#333333"/>
<path d="M86.0022 197.499H28.003C26.5579 197.499 25.386 196.327 25.386 194.882V184.806C25.386 183.361 26.5579 182.189 28.003 182.189H86.0022C87.4473 182.189 88.6192 183.361 88.6192 184.806V194.882C88.6192 196.327 87.4473 197.499 86.0022 197.499ZM30.6201 192.264H83.3851V187.423H30.6201V192.264Z" fill="#333333"/>
<path d="M93.6742 51.6873C92.9383 51.6873 92.2065 51.3785 91.6889 50.7771L80.8391 38.1655C79.8964 37.07 80.021 35.4176 81.1165 34.475C82.212 33.5318 83.8639 33.6569 84.8071 34.7524L95.6569 47.364C96.5995 48.4595 96.4749 50.1119 95.3794 51.0545C94.8853 51.4795 94.2782 51.6873 93.6742 51.6873Z" fill="white"/>
<path d="M76.3627 31.5664C76.1899 31.5664 76.0172 31.5455 75.8497 31.5141C75.6822 31.4774 75.52 31.4303 75.3629 31.3623C75.2007 31.2995 75.0489 31.2157 74.9076 31.1215C74.7663 31.0273 74.6302 30.9174 74.5098 30.797C74.3894 30.6766 74.2795 30.5458 74.1853 30.3992C74.0911 30.2579 74.0125 30.1061 73.9445 29.9491C73.8817 29.792 73.8294 29.6246 73.7979 29.4571C73.7613 29.2896 73.7456 29.1168 73.7456 28.9494C73.7456 28.2584 74.023 27.5833 74.5098 27.0965C74.6302 26.9761 74.7663 26.8662 74.9076 26.772C75.0489 26.6777 75.2007 26.5992 75.3629 26.5312C75.52 26.4684 75.6822 26.416 75.8497 26.3846C76.1899 26.3114 76.5354 26.3114 76.8756 26.3846C77.0379 26.416 77.2054 26.4684 77.3624 26.5312C77.5194 26.5992 77.6712 26.6777 77.8125 26.772C77.9591 26.8662 78.0899 26.9761 78.2103 27.0965C78.6971 27.5833 78.9797 28.2584 78.9797 28.9494C78.9797 29.1168 78.964 29.2896 78.9274 29.4571C78.896 29.6246 78.8436 29.792 78.7756 29.9491C78.7128 30.1061 78.6343 30.2579 78.5401 30.3992C78.4406 30.5458 78.3307 30.6766 78.2103 30.797C78.0899 30.9174 77.9591 31.0273 77.8125 31.1215C77.6712 31.2157 77.5194 31.2995 77.3624 31.3623C77.2054 31.4303 77.0379 31.4774 76.8756 31.5141C76.7029 31.5455 76.5302 31.5664 76.3627 31.5664Z" fill="white"/>
<path d="M101.652 73.7067C100.207 73.7067 99.0352 72.5348 99.0352 71.0897V63.5002C99.0352 62.0551 100.207 60.8832 101.652 60.8832C103.097 60.8832 104.269 62.0551 104.269 63.5002V71.0897C104.269 72.5353 103.097 73.7067 101.652 73.7067Z" fill="white"/>
<path d="M101.652 97.5219C100.207 97.5219 99.0352 96.3499 99.0352 94.9048V87.3154C99.0352 85.8702 100.207 84.6983 101.652 84.6983C103.097 84.6983 104.269 85.8702 104.269 87.3154V94.9048C104.269 96.3505 103.097 97.5219 101.652 97.5219Z" fill="white"/>
<path d="M101.652 121.337C100.207 121.337 99.0352 120.165 99.0352 118.72V111.131C99.0352 109.685 100.207 108.513 101.652 108.513C103.097 108.513 104.269 109.685 104.269 111.131V118.72C104.269 120.166 103.097 121.337 101.652 121.337Z" fill="white"/>
<path d="M101.652 179.436C100.207 179.436 99.0352 178.264 99.0352 176.819V128.927C99.0352 127.481 100.207 126.309 101.652 126.309C103.097 126.309 104.269 127.481 104.269 128.927V176.819C104.269 178.264 103.097 179.436 101.652 179.436Z" fill="white"/>
<path d="M79.4072 212.519C78.329 212.519 77.3193 211.848 76.9398 210.773L74.2762 203.235C73.7947 201.872 74.5091 200.377 75.8721 199.895C77.2345 199.413 78.7299 200.128 79.2114 201.491L81.8751 209.03C82.3566 210.393 81.6422 211.888 80.2792 212.369C79.9908 212.471 79.6966 212.519 79.4072 212.519Z" fill="white"/>
</svg>
